Coordinates
version=1
nRows=19
nColumns=24
inDegrees=yes

Units are S.I. units (second, meters, Newtons, ...)
Angles are in degrees.

endheader
time	pelvis_tilt	pelvis_list	pelvis_rotation	pelvis_tx	pelvis_ty	pelvis_tz	hip_flexion_r	hip_adduction_r	hip_rotation_r	knee_angle_r	ankle_angle_r	subtalar_angle_r	mtp_angle_r	hip_flexion_l	hip_adduction_l	hip_rotation_l	knee_angle_l	ankle_angle_l	subtalar_angle_l	mtp_angle_l	lumbar_extension	lumbar_bending	lumbar_rotation
      1.32550000	      1.50767647	      5.15423290	     -3.69402655	      0.20906507	      1.06699929	      0.32734432	     14.02168227	     -7.16302681	     -1.38493937	    -67.00792029	     -5.52695257	    -11.09254024	     11.12774638	      5.42478769	     10.51452370	     -2.70459766	     -3.84463494	     -4.89617894	    -11.60124778	      3.94817202	      3.06098101	     -2.80780859	      1.18596910
      1.32966667	      1.50719168	      5.18774458	     -3.68398135	      0.21404138	      1.06750790	      0.32721158	     14.66480955	     -7.14205148	     -1.18585077	    -67.03082175	     -4.90456131	    -11.32383313	     11.04204431	      5.03291388	     10.58486244	     -2.64850480	     -3.66254567	     -4.74367328	    -11.54635029	      3.89533981	      3.03770241	     -2.84631641	      1.10841612
      1.33383333	      1.52759761	      5.23569959	     -3.68763532	      0.21899640	      1.06802394	      0.32699941	     15.27926388	     -7.14420256	     -0.97429525	    -66.99186575	     -4.39156209	    -11.50702841	     10.98328683	      4.60818321	     10.68240976	     -2.54892291	     -3.45621378	     -4.62485721	    -11.47616762	      3.85952697	      3.00450082	     -2.83865421	      1.04114867
      1.33800000	      1.53604514	      5.25354058	     -3.67991048	      0.22399791	      1.06854636	      0.32688927	     15.87541113	     -7.09513233	     -0.77710687	    -66.87980866	     -3.80007546	    -11.68549924	     10.92513797	      4.18724132	     10.73323819	     -2.46930415	     -3.23801716	     -4.48188741	    -11.42159761	      3.82288547	      2.96988706	     -2.85963014	      0.97427029
      1.34216667	      1.55312648	      5.27368871	     -3.66486387	      0.22895518	      1.06906343	      0.32678116	     16.44892153	     -7.04451265	     -0.58141333	    -66.70250547	     -3.21681128	    -11.81959362	     10.86676947	      3.75846417	     10.78652458	     -2.39684958	     -3.02417954	     -4.34131378	    -11.36621274	      3.78488190	      2.93338010	     -2.88079397	      0.90464372
      1.34633333	      1.56363969	      5.28347615	     -3.64170248	      0.23393156	      1.06957066	      0.32666605	     17.00622280	     -6.98127676	     -0.39359994	    -66.45811638	     -2.61327096	    -11.90630256	     10.80040011	      3.33009696	     10.82913203	     -2.32724346	     -2.80467975	     -4.19603628	    -11.30804761	      3.73988557	      2.90201568	     -2.89917118	      0.82717533
      1.35050000	      1.58057916	      5.30071021	     -3.61884815	      0.23891203	      1.07006762	      0.32656007	     17.54196101	     -6.92306077	     -0.20701890	    -66.15622783	     -2.09964046	    -11.95292145	     10.74164144	      2.88651133	     10.87859873	     -2.23849544	     -2.56635626	     -4.07478021	    -11.24180491	      3.69914360	      2.86586014	     -2.91634104	      0.75525525
      1.35466667	      1.59522737	      5.31217682	     -3.59027478	      0.24389129	      1.07054823	      0.32645159	     18.06096687	     -6.85563317	     -0.02386330	    -65.79410269	     -1.55166705	    -11.97585215	     10.67942769	      2.44025908	     10.92109838	     -2.14723689	     -2.32087044	     -3.94592901	    -11.17976633	      3.65446783	      2.83099584	     -2.93250525	      0.67738683
      1.35883333	      1.60922547	      5.32043950	     -3.55820785	      0.24886527	      1.07101286	      0.32635549	     18.56142289	     -6.78032022	      0.15710518	    -65.36797548	     -1.03794041	    -11.97050845	     10.61768379	      1.99012679	     10.95870581	     -2.05320717	     -2.06438431	     -3.82587958	    -11.11841511	      3.60874753	      2.79850825	     -2.94346627	      0.59792625
      1.36300000	      1.63355254	      5.31607599	     -3.48172008	      0.25381421	      1.07149279	      0.32627234	     19.01939170	     -6.69514849	      0.29435999	    -64.88395960	     -0.39261345	    -11.85835774	     10.50457032	      1.53551317	     10.97815010	     -1.99742044	     -1.83205888	     -3.67503139	    -11.06702759	      3.52068599	      2.70614869	     -2.99032764	      0.47371415
      1.36716667	      1.65633091	      5.32688292	     -3.44471576	      0.25877881	      1.07192777	      0.32618385	     19.47564391	     -6.61986331	      0.47381529	    -64.34455961	      0.08262594	    -11.77266046	     10.38663324	      1.06459628	     11.01825984	     -1.88677239	     -1.55268417	     -3.56666422	    -11.00528920	      3.42811256	      2.67049631	     -3.00981276	      0.35943909
      1.37133333	      1.62569068	      5.33906406	     -3.39614267	      0.26375063	      1.07227105	      0.32614295	     19.97094078	     -6.53441879	      0.65111525	    -63.73205174	      0.25634877	    -11.78645931	     10.36297962	      0.65233845	     11.04900746	     -1.78644778	     -1.28184397	     -3.53196808	    -10.95092482	      3.41071951	      2.61319518	     -3.03087047	      0.32802363
      1.37550000	      1.69991503	      5.36965784	     -3.35399895	      0.26864438	      1.07269779	      0.32599864	     20.34593199	     -6.49181976	      0.81519475	    -63.11593937	      0.93590062	    -11.60253628	     10.17044091	      0.11807131	     11.11868328	     -1.62773181	     -0.97838441	     -3.38600401	    -10.88620272	      3.25039836	      2.50573357	     -3.04478422	      0.13143149
      1.37966667	      1.67102400	      5.37570956	     -3.29882066	      0.27364296	      1.07300115	      0.32600766	     20.79619702	     -6.39299806	      0.98254020	    -62.38740053	      1.09818702	    -11.63155092	     10.14520691	     -0.30466737	     11.13858229	     -1.55451385	     -0.69229707	     -3.34537268	    -10.85048017	      3.23091466	      2.49810256	     -3.09562360	      0.11027394
      1.38383333	      1.65406758	      5.39633940	     -3.26268634	      0.27865433	      1.07326795	      0.32600095	     21.22240507	     -6.30835248	      1.16584009	    -61.62369469	      1.33894666	    -11.67053295	     10.11782107	     -0.75280360	     11.17885137	     -1.45201909	     -0.37810450	     -3.28602362	    -10.80750605	      3.20919680	      2.50791751	     -3.12944973	      0.07645210
      1.38800000	      1.69568227	      5.42771629	     -3.23486077	      0.28366683	      1.07357592	      0.32587201	     21.57243452	     -6.25627259	      1.32473394	    -60.83453700	      1.73431543	    -11.70130027	     10.06318469	     -1.27517205	     11.24892595	     -1.32641598	     -0.03719265	     -3.18481514	    -10.76595728	      3.16254348	      2.55970501	     -3.14076825	     -0.00008391
      1.39216667	      1.64379844	      5.45225858	     -3.15724809	      0.28860539	      1.07372751	      0.32589292	     21.99822631	     -6.17619786	      1.47771131	    -59.97007879	      1.91255601	    -11.71062085	     10.03862110	     -1.66936629	     11.28321581	     -1.26221835	      0.24311595	     -3.13800473	    -10.73625629	      3.14196486	      2.48473258	     -3.19964716	     -0.03678781
      1.39633333	      1.68572802	      5.48733843	     -3.12779613	      0.29361886	      1.07397221	      0.32582939	     22.30731317	     -6.12055618	      1.63859712	    -59.06894332	      2.20372540	    -11.73475988	      9.98689572	     -2.19813439	     11.35063017	     -1.13015760	      0.59811890	     -3.05349603	    -10.68801045	      3.09674842	      2.53070979	     -3.23208444	     -0.12236925
      1.40050000	      1.75266799	      5.47972182	     -3.02194969	      0.29858860	      1.07427253	      0.32573934	     22.53932541	     -6.03861972	      1.71922700	    -58.09040407	      2.53405358	    -11.73800083	      9.83250321	     -2.74027762	     11.36141807	     -1.01881832	      0.90240582	     -2.93086954	    -10.68011324	      2.95479688	      2.37348886	     -3.23290467	     -0.37353436
